<svg width="69" height="35" viewBox="0 0 69 35" fill="none" xmlns="http://www.w3.org/2000/svg">
<path d="M9.59961 34.6328C11.6211 34.6328 13.5283 34.2197 15.3213 33.3936C17.1318 32.5498 18.582 31.3633 19.6719 29.834C20.7793 28.3047 21.333 26.5557 21.333 24.5869C21.333 23.1807 20.9727 21.959 20.252 20.9219C19.5312 19.8848 18.6523 19.0146 17.6152 18.3115C16.5781 17.5908 15.1807 16.7646 13.4229 15.833C11.7354 14.9189 10.3994 14.1367 9.41504 13.4863C8.44824 12.8359 7.62207 12.0361 6.93652 11.0869C6.26855 10.1377 5.93457 9.03027 5.93457 7.76465C5.93457 6.1123 6.38281 4.86426 7.2793 4.02051C8.17578 3.17676 9.32715 2.75488 10.7334 2.75488C11.3838 2.75488 12.0254 2.89551 12.6582 3.17676C13.291 3.44043 13.8271 3.77441 14.2666 4.17871C14.7236 4.56543 15.04 4.92578 15.2158 5.25977L15.875 10.2959L18.4854 10.6123C18.5381 9.85645 18.6348 8.63477 18.7754 6.94727C18.916 5.25977 19.0127 4.00293 19.0654 3.17676C16.9561 1.41895 14.4775 0.540039 11.6299 0.540039C9.85449 0.540039 8.18457 0.90918 6.62012 1.64746C5.05566 2.38574 3.79004 3.45801 2.82324 4.86426C1.85645 6.27051 1.37305 7.93164 1.37305 9.84766C1.37305 11.5 1.76855 12.9326 2.55957 14.1455C3.36816 15.3584 4.33496 16.3604 5.45996 17.1514C6.60254 17.9248 8.09668 18.8037 9.94238 19.7881C11.4365 20.5967 12.6055 21.2822 13.4492 21.8447C14.3105 22.4072 15.0312 23.0752 15.6113 23.8486C16.1914 24.6045 16.4814 25.4658 16.4814 26.4326C16.4814 27.6631 16.165 28.6914 15.5322 29.5176C14.917 30.3438 14.126 30.959 13.1592 31.3633C12.21 31.7676 11.2344 31.9697 10.2324 31.9697C9.07227 31.9697 8 31.7148 7.01562 31.2051C6.04883 30.6953 5.31055 30.0713 4.80078 29.333L3.77246 24.376L1.08301 24.0068L0.740234 31.5742C1.63672 32.4531 2.87598 33.1826 4.45801 33.7627C6.05762 34.3428 7.77148 34.6328 9.59961 34.6328Z" fill="#2754BA"/>
<path d="M28.3984 4.31055V30.8096L23.9951 32.0488L23.7842 34H38.0488L38.3916 31.8906L33.54 30.9941V18.4697H50.0723V30.8096L45.6953 32.0488L45.4316 34H59.749L60.0127 31.8906L55.2139 30.9941V4.20508L59.6172 3.20312L59.9336 1.19922H45.5371L45.2471 3.20312L50.0723 4.31055V15.7539H33.54V4.20508L37.9697 3.20312L38.2334 1.19922H23.8896L23.5996 3.20312L28.3984 4.31055Z" fill="#FFA033"/>
<path d="M65.1533 34.8174C65.7334 34.8174 66.2695 34.668 66.7617 34.3691C67.2539 34.0879 67.6406 33.71 67.9219 33.2354C68.2207 32.7432 68.3701 32.207 68.3701 31.627C68.3701 30.7832 68.0537 30.0713 67.4209 29.4912C66.7881 28.8936 66.0322 28.5947 65.1533 28.5947C64.3096 28.5947 63.5801 28.8848 62.9648 29.4648C62.3496 30.0273 62.042 30.7305 62.042 31.5742C62.042 32.4707 62.3408 33.2354 62.9385 33.8682C63.5537 34.501 64.292 34.8174 65.1533 34.8174Z" fill="#101913"/>
</svg>
