<svg width="64" height="64" viewBox="0 0 64 64" fill="none" xmlns="http://www.w3.org/2000/svg">
<circle cx="32" cy="32" r="31.5" fill="white" stroke="#BCBCBC"/>
<path d="M27.2043 38.1528C25.5605 39.2462 23.6249 39.8334 21.6392 39.8313M27.2043 38.1528L21.3993 40.3309C21.4801 40.332 21.5608 40.3322 21.6417 40.3313C21.9166 40.3315 22.1906 40.321 22.463 40.2999M27.2043 38.1528C27.4063 38.1804 27.6103 38.197 27.8156 38.2022L27.8282 37.7023L27.5202 37.3085C27.3783 37.4194 27.2336 37.5261 27.0863 37.6284L27.2043 38.1528ZM21.6392 39.8313C21.6022 39.8317 21.5652 39.8319 21.5282 39.8319C21.5651 39.8521 21.6021 39.8722 21.6391 39.8922L21.6392 39.8313ZM21.6392 39.8313L21.6399 39.8926C21.91 40.0378 22.1845 40.1736 22.463 40.2999M22.463 40.2999C24.5237 40.1403 26.4986 39.3769 28.1362 38.0962L29.234 37.2377L27.8408 37.2025C26.9027 37.1788 25.995 36.8649 25.2427 36.304C24.7069 35.9046 24.2686 35.3939 23.9558 34.8106M22.463 40.2999C24.2267 41.0992 26.1486 41.5147 28.1004 41.5085L28.1054 41.5085V41.5086C29.9083 41.5211 31.6957 41.1753 33.3638 40.4912C35.0318 39.8071 36.5474 38.7984 37.8223 37.5237C39.0973 36.2489 40.1062 34.7336 40.7906 33.0656C41.4749 31.3976 41.821 29.6103 41.8088 27.8074L41.8088 27.804C41.8088 27.595 41.8012 27.3915 41.791 27.1832L41.7777 26.9108L41.9995 26.7521C42.4802 26.4083 42.9266 26.0209 43.3334 25.5954M23.9558 34.8106L28.102 42.0085C29.9711 42.0215 31.8241 41.663 33.5535 40.9538C35.2828 40.2446 36.8541 39.1988 38.1759 37.8772C39.4976 36.5557 40.5437 34.9846 41.2532 33.2554C41.9627 31.5261 42.3215 29.6731 42.3088 27.804C42.3088 27.5832 42.3007 27.3704 42.2904 27.1588C43.0211 26.6361 43.6766 26.0178 44.2398 25.3214C43.9417 25.4259 43.6392 25.5173 43.3334 25.5954M23.9558 34.8106C24.0079 34.8114 24.0601 34.8114 24.1123 34.8105M23.9558 34.8106C23.8675 34.646 23.7892 34.4757 23.7215 34.3004C23.8506 34.3094 23.9801 34.3128 24.1097 34.3105M23.9558 34.8106C23.7618 34.8077 23.5683 34.7933 23.3762 34.7675C23.2955 34.5916 23.2246 34.4107 23.1643 34.2254L23.9558 34.8106ZM43.3334 25.5954C43.5466 25.3724 43.749 25.1389 43.9396 24.8958L24.1097 34.3105M43.3334 25.5954C42.8885 25.7091 42.4363 25.7947 41.9794 25.8515L41.6626 24.9253C42.1904 24.6121 42.6433 24.1963 42.9978 23.7074C42.3684 23.9653 41.7143 24.1617 41.0445 24.2932L40.7725 24.3466L40.5831 24.1443C39.9674 23.4864 39.1679 23.0289 38.2888 22.8314C37.4096 22.6339 36.4913 22.7054 35.6534 23.0367C34.8154 23.368 34.0965 23.9438 33.5901 24.6891C33.0837 25.4344 32.8132 26.3148 32.8139 27.2159L32.8139 27.2217L32.8138 27.2217C32.8101 27.5672 32.8449 27.9119 32.9177 28.2496L33.0548 28.8862L32.4044 28.8543C30.3485 28.7535 28.337 28.2199 26.5014 27.2885C24.8974 26.4746 23.4594 25.373 22.2577 24.0406C21.9379 24.8713 21.87 25.784 22.072 26.6621C22.3286 27.7777 23.0014 28.7533 23.9529 29.3897L25.3915 30.3517L23.6615 30.3051C23.0872 30.2897 22.5209 30.1832 21.9833 29.9914C22.1133 30.7567 22.4393 31.4801 22.9353 32.0883C23.591 32.8925 24.5038 33.4462 25.5199 33.6564L25.5461 34.6295C25.0782 34.7529 24.5961 34.8137 24.1123 34.8105M24.1123 34.8105C24.1101 34.8105 24.108 34.8105 24.1058 34.8105L24.1097 34.3105M24.1123 34.8105C24.1144 34.8105 24.1166 34.8105 24.1187 34.8104L24.1097 34.3105" fill="#060606" stroke="#060606"/>
</svg>
