<svg width="37" height="36" viewBox="0 0 37 36" fill="none" xmlns="http://www.w3.org/2000/svg">
<path d="M18.7812 36C28.7224 36 36.7812 27.9411 36.7812 18C36.7812 8.05887 28.7224 0 18.7812 0C8.84012 0 0.78125 8.05887 0.78125 18C0.78125 27.9411 8.84012 36 18.7812 36Z" fill="white"/>
<path d="M19.5245 15.8496V14.7693C19.5221 14.6436 19.5297 14.5179 19.5472 14.3934C19.564 14.3002 19.5987 14.2112 19.6495 14.1313C19.7092 14.0406 19.8017 13.9765 19.9077 13.9528C20.0631 13.9157 20.2227 13.8991 20.3824 13.9033H21.4628V11.7512H19.74C19.3523 11.7138 18.961 11.7576 18.5912 11.8798C18.2213 12.002 17.881 12.1998 17.5919 12.4608C17.1175 13.0502 16.8842 13.7975 16.9391 14.5521V15.8496H15.6484V18.0056H16.9385V24.26H19.5267V18.0056H21.2495L21.477 15.8501L19.5245 15.8496Z" fill="black"/>
</svg>
