<svg width="37" height="36" viewBox="0 0 37 36" fill="none" xmlns="http://www.w3.org/2000/svg">
<path d="M18.2578 36C28.1989 36 36.2578 27.9411 36.2578 18C36.2578 8.05887 28.1989 0 18.2578 0C8.31669 0 0.257812 8.05887 0.257812 18C0.257812 27.9411 8.31669 36 18.2578 36Z" fill="white"/>
<path d="M24.5178 19.5196V24.4297H21.8341V19.8502C21.8341 18.6991 21.4459 17.9139 20.4748 17.9139C20.1653 17.9216 19.8659 18.0263 19.6189 18.213C19.3719 18.3998 19.1897 18.6594 19.0979 18.9551C19.0287 19.1798 18.9985 19.4146 19.0086 19.6495V24.4319H16.3241C16.3241 24.4319 16.3603 16.6728 16.3241 15.8722H19.0071V17.0845C19.002 17.0934 18.9946 17.1037 18.9894 17.1118H19.0071V17.0845C19.2374 16.6458 19.5862 16.2806 20.0138 16.0304C20.4415 15.7802 20.9307 15.655 21.426 15.6692C23.1933 15.667 24.5178 16.8912 24.5178 19.5196ZM13.5164 11.7406C13.3176 11.7293 13.1186 11.7594 12.932 11.829C12.7455 11.8985 12.5754 12.0061 12.4326 12.1448C12.2898 12.2836 12.1773 12.4505 12.1023 12.6349C12.0273 12.8194 11.9915 13.0174 11.997 13.2164C11.99 13.413 12.0235 13.6088 12.0956 13.7918C12.1677 13.9748 12.2768 14.1409 12.416 14.2798C12.5552 14.4188 12.7215 14.5275 12.9046 14.5992C13.0877 14.6709 13.2837 14.7041 13.4802 14.6967H13.4979C13.697 14.7078 13.8962 14.6774 14.083 14.6075C14.2697 14.5376 14.4399 14.4296 14.5826 14.2904C14.7254 14.1512 14.8377 13.9839 14.9124 13.799C14.9871 13.6141 15.0226 13.4157 15.0165 13.2164C15.0227 13.0189 14.9878 12.8222 14.9143 12.6388C14.8408 12.4553 14.7301 12.2891 14.5892 12.1505C14.4483 12.0119 14.2802 11.9039 14.0956 11.8334C13.911 11.7628 13.7138 11.7312 13.5164 11.7406ZM12.1564 24.4319H14.8402V15.8722H12.1564V24.4319Z" fill="black"/>
</svg>
