<svg width="36" height="36" viewBox="0 0 36 36" fill="none" xmlns="http://www.w3.org/2000/svg">
<path d="M18 36C27.9411 36 36 27.9411 36 18C36 8.05887 27.9411 0 18 0C8.05887 0 0 8.05887 0 18C0 27.9411 8.05887 36 18 36Z" fill="white"/>
<path d="M21.5202 13.0253C20.5473 12.1729 19.2906 11.7155 17.9975 11.7431C17.2514 11.7124 16.5066 11.8292 15.8058 12.0866C15.1049 12.3441 14.4617 12.7373 13.9129 13.2436C13.4899 13.6381 13.1501 14.1134 12.9137 14.6413C12.6772 15.1692 12.5488 15.7391 12.5361 16.3174C12.4807 16.9047 12.6082 17.4947 12.901 18.0067C13.1938 18.5188 13.6377 18.9279 14.1719 19.178C14.2375 19.2041 14.3073 19.2176 14.3779 19.218C14.4812 19.2193 14.5819 19.1852 14.6632 19.1214C14.7444 19.0576 14.8014 18.9679 14.8247 18.8673C14.8596 18.7435 14.9397 18.4372 14.9739 18.3047C15.0116 18.2063 15.0179 18.0985 14.9919 17.9963C14.9658 17.8941 14.9087 17.8026 14.8283 17.7342C14.5279 17.3918 14.3714 16.9464 14.3917 16.4913C14.3991 16.0582 14.4942 15.6311 14.6712 15.2358C14.8481 14.8404 15.1033 14.485 15.4213 14.1909C15.7394 13.8968 16.1136 13.6701 16.5216 13.5246C16.9296 13.379 17.3628 13.3176 17.7952 13.344C19.5496 13.344 20.639 14.2944 20.639 15.8233C20.6611 16.7019 20.4491 17.5707 20.0248 18.3404C19.8836 18.6241 19.6706 18.8658 19.407 19.0416C19.1433 19.2174 18.8383 19.3211 18.5221 19.3424C18.3728 19.3465 18.2245 19.3178 18.0875 19.2582C17.9506 19.1986 17.8284 19.1096 17.7297 18.9975C17.6443 18.8934 17.5853 18.7703 17.5577 18.6385C17.5301 18.5068 17.5346 18.3703 17.571 18.2407C17.6489 17.9256 17.7559 17.596 17.8621 17.278C18.0567 16.7752 18.1792 16.2475 18.226 15.7105C18.2383 15.5472 18.2161 15.3831 18.1608 15.2289C18.1054 15.0748 18.0182 14.934 17.9047 14.8159C17.7912 14.6978 17.6541 14.6049 17.5023 14.5434C17.3505 14.4819 17.1875 14.4531 17.0238 14.4588C16.7843 14.4838 16.5522 14.5557 16.3405 14.6705C16.1289 14.7853 15.942 14.9407 15.7905 15.1278C15.6389 15.3148 15.5258 15.5299 15.4574 15.7608C15.3891 15.9916 15.367 16.2337 15.3923 16.4731C15.3904 16.8599 15.4667 17.243 15.6164 17.5996C15.5014 18.0646 14.816 20.8269 14.6871 21.348C14.6144 21.6522 14.1603 24.0543 14.9055 24.2457C15.746 24.464 16.4969 22.1215 16.5741 21.8574C16.6359 21.6391 16.8528 20.8291 16.986 20.3292C17.4587 20.7323 18.0596 20.9536 18.6808 20.9536C19.2631 20.9579 19.8388 20.8299 20.3645 20.5793C20.8901 20.3287 21.352 19.962 21.7153 19.5069C22.4887 18.4875 22.8912 17.2348 22.8563 15.9557C22.8484 15.4014 22.7256 14.8548 22.4956 14.3504C22.2656 13.846 21.9335 13.3948 21.5202 13.0253Z" fill="black"/>
</svg>
