<svg width="37" height="36" viewBox="0 0 37 36" fill="none" xmlns="http://www.w3.org/2000/svg">
<path d="M18.5234 36C28.4646 36 36.5234 27.9411 36.5234 18C36.5234 8.05887 28.4646 0 18.5234 0C8.58231 0 0.523438 8.05887 0.523438 18C0.523438 27.9411 8.58231 36 18.5234 36Z" fill="white"/>
<path d="M25.5674 13.8784C25.0376 14.1094 24.4773 14.2629 23.9038 14.3342C24.5085 13.9754 24.9605 13.4071 25.1741 12.7372C24.608 13.0728 23.9886 13.3091 23.3428 13.4359C22.9469 13.0128 22.4329 12.7187 21.8676 12.5917C21.3023 12.4647 20.7119 12.5107 20.1731 12.7237C19.6342 12.9368 19.172 13.307 18.8464 13.7862C18.5208 14.2654 18.3469 14.8315 18.3473 15.4109C18.3449 15.6323 18.3672 15.8533 18.4138 16.0697C17.265 16.0134 16.141 15.7152 15.1152 15.1947C14.0895 14.6743 13.1852 13.9432 12.4613 13.0492C12.0898 13.6846 11.9747 14.4378 12.1397 15.1551C12.3047 15.8724 12.7372 16.4997 13.3491 16.9089C12.8918 16.8966 12.4442 16.7744 12.0441 16.5529V16.5828C12.045 17.2496 12.2755 17.8958 12.6969 18.4126C13.1183 18.9294 13.7049 19.2852 14.3579 19.4203C14.1108 19.4854 13.8561 19.5174 13.6006 19.5154C13.417 19.5187 13.2336 19.5022 13.0536 19.4662C13.2402 20.0393 13.5999 20.5405 14.0832 20.9008C14.5664 21.261 15.1494 21.4626 15.752 21.4779C14.7297 22.2773 13.469 22.711 12.1712 22.7096C11.9404 22.7122 11.7097 22.6999 11.4805 22.673C12.8009 23.524 14.3395 23.9742 15.9104 23.9693C16.9918 23.9768 18.0639 23.7694 19.0645 23.3591C20.065 22.9487 20.9741 22.3437 21.7389 21.5791C22.5036 20.8144 23.1088 19.9055 23.5193 18.905C23.9298 17.9045 24.1374 16.8324 24.13 15.751C24.13 15.6232 24.1254 15.5001 24.1194 15.3777C24.6892 14.9701 25.1799 14.462 25.5674 13.8784Z" fill="black"/>
</svg>
