<svg width="64" height="64" viewBox="0 0 64 64" fill="none" xmlns="http://www.w3.org/2000/svg">
<circle cx="32" cy="32" r="31.5" fill="white" stroke="#BCBCBC"/>
<path d="M43.3652 33.8937V41.8802H39.7266V34.4651C39.7266 33.4287 39.5544 32.48 39.1021 31.7755C38.6273 31.0361 37.8768 30.6184 36.8773 30.6184V30.6183L36.8648 30.6186C36.2252 30.6345 35.6066 30.8507 35.0963 31.2366C34.5859 31.6225 34.2094 32.1588 34.0198 32.7699L34.0195 32.7708C33.8842 33.2102 33.8245 33.6693 33.8431 34.1286V41.884H30.2054L30.2057 41.8072C30.2073 41.4377 30.2095 40.9084 30.212 40.2689C30.2168 38.9898 30.2227 37.2699 30.2266 35.5068C30.2332 32.5278 30.2344 29.4038 30.2151 28.0894H33.8405V29.5384L33.399 30.2321H34.3099H34.3405H34.8405V29.8201V29.8119C35.1944 29.1834 35.7092 28.6594 36.333 28.2944C36.9913 27.9093 37.7445 27.7166 38.5069 27.7385L38.5144 27.7387L38.5219 27.7387C39.9281 27.7369 41.117 28.219 41.9615 29.1894C42.8129 30.1677 43.3652 31.7014 43.3652 33.8937ZM24.8219 20.9477L24.8479 20.9491L24.874 20.9479C25.1463 20.935 25.4183 20.9786 25.673 21.0759C25.9277 21.1732 26.1595 21.3221 26.3539 21.5133L26.7045 21.1569L26.3539 21.5133C26.5482 21.7045 26.7009 21.9338 26.8024 22.1869C26.9038 22.44 26.9519 22.7113 26.9434 22.9838L26.9429 22.9991L26.9434 23.0144C26.9517 23.2896 26.9028 23.5636 26.7996 23.8189C26.6965 24.0742 26.5414 24.3053 26.3442 24.4975C26.147 24.6897 25.9121 24.8388 25.6542 24.9354C25.3964 25.0319 25.1212 25.0739 24.8463 25.0585L24.8324 25.0577H24.8184H24.7878H24.7783L24.7689 25.0581C24.4979 25.0683 24.2278 25.0226 23.9753 24.9237C23.7228 24.8248 23.4935 24.6749 23.3015 24.4834C23.1096 24.2918 22.9593 24.0628 22.8599 23.8105C22.7605 23.5582 22.7142 23.2881 22.7239 23.0172L22.7245 23.0013L22.724 22.9854C22.7164 22.7106 22.7659 22.4372 22.8694 22.1825C22.973 21.9278 23.1282 21.6974 23.3254 21.5058C23.5227 21.3143 23.7575 21.1657 24.0151 21.0697C24.2727 20.9736 24.5474 20.932 24.8219 20.9477ZM26.6383 28.0894V41.884H22.9997V28.0894H26.6383Z" fill="#060606" stroke="#060606"/>
</svg>
