<svg width="64" height="64" viewBox="0 0 64 64" fill="none" xmlns="http://www.w3.org/2000/svg">
<circle cx="32" cy="32" r="31.5" fill="white" stroke="#BCBCBC"/>
<path d="M32.8673 28.4393V28.9392L33.3671 28.9393L36.1865 28.9401L35.8989 31.6658H33.3712H32.8712V32.1658V42.4759H29.3978V32.1658V31.6658H28.8978H27.168V28.9393H28.8988H29.3988V28.4393V26.1967V26.1785L29.3975 26.1604C29.3127 24.9957 29.6677 23.842 30.3916 22.9269C30.8333 22.5354 31.3503 22.238 31.911 22.0527C32.4843 21.8634 33.0908 21.7955 33.6917 21.8534L33.7157 21.8558H33.7397H36.2174V24.5754H34.8566C34.5403 24.5676 34.2244 24.6007 33.9166 24.6738C33.6084 24.744 33.3392 24.9307 33.1656 25.1949L33.1655 25.1949L33.1615 25.2012C33.0389 25.3941 32.955 25.609 32.9145 25.8339L32.9128 25.8433L32.9115 25.8528C32.8777 26.0926 32.8629 26.3346 32.8673 26.5767V28.4393Z" fill="#060606" stroke="#060606"/>
</svg>
